<?xml version="1.0" encoding="UTF-8"?>
<svg width="444px" height="425px" viewBox="0 0 444 425" version="1.1" xmlns="http://www.w3.org/2000/svg" xmlns:xlink="http://www.w3.org/1999/xlink">
    <!-- Generator: Sketch 47.1 (45422) - http://www.bohemiancoding.com/sketch -->
    <title>20-30</title>
    <desc>Created with Sketch.</desc>
    <defs>
        <circle id="path-1" cx="222" cy="179" r="119"></circle>
        <filter x="-2.9%" y="-2.1%" width="105.9%" height="105.9%" filterUnits="objectBoundingBox" id="filter-2">
            <feOffset dx="0" dy="2" in="SourceAlpha" result="shadowOffsetOuter1"></feOffset>
            <feGaussianBlur stdDeviation="2" in="shadowOffsetOuter1" result="shadowBlurOuter1"></feGaussianBlur>
            <feColorMatrix values="0 0 0 0 0   0 0 0 0 0   0 0 0 0 0  0 0 0 0.226590806 0" type="matrix" in="shadowBlurOuter1"></feColorMatrix>
        </filter>
        <path d="M138,233.812709 C155.480013,261.966231 186.677783,280.712641 222.254011,280.712641 C258.558434,280.712641 290.303322,261.190953 307.564073,232.072178 C306.519891,230.542826 305.407313,229.423855 304.226337,228.71527 C301.167669,226.880069 250.393765,196.29338 245.499895,195.069912 C242.237314,194.254267 241.829492,200.575516 244.276427,214.03366 L227.147881,215.257127 L215.524939,215.257127 L201.455063,195.069912 L148.234224,223.8214 C142.932531,227.08398 139.669951,229.938738 138.446483,232.385673 C138.297656,232.683328 138.148828,233.159007 138,233.812709 Z" id="path-3"></path>
        <filter x="-4.1%" y="-5.8%" width="108.3%" height="116.3%" filterUnits="objectBoundingBox" id="filter-4">
            <feOffset dx="0" dy="2" in="SourceAlpha" result="shadowOffsetOuter1"></feOffset>
            <feGaussianBlur stdDeviation="2" in="shadowOffsetOuter1" result="shadowBlurOuter1"></feGaussianBlur>
            <feColorMatrix values="0 0 0 0 0   0 0 0 0 0   0 0 0 0 0  0 0 0 0.113337862 0" type="matrix" in="shadowBlurOuter1"></feColorMatrix>
        </filter>
        <path d="M219.71067,226 L227.440321,226 L227.440321,226 C228.973465,226 230.259918,227.155982 230.423248,228.680401 L236.389766,284.367901 L236.389766,284.367901 C236.566276,286.015326 235.373863,287.493918 233.726438,287.670427 C233.620285,287.681801 233.5136,287.6875 233.406839,287.6875 L215.732992,287.6875 L215.732992,287.6875 C214.076137,287.6875 212.732992,286.344354 212.732992,284.6875 C212.732992,284.616185 212.735535,284.544893 212.740616,284.473759 L216.718294,228.786259 L216.718294,228.786259 C216.830431,227.216343 218.136754,226 219.71067,226 Z" id="path-5"></path>
        <filter x="-30.4%" y="-8.1%" width="160.9%" height="122.7%" filterUnits="objectBoundingBox" id="filter-6">
            <feOffset dx="0" dy="2" in="SourceAlpha" result="shadowOffsetOuter1"></feOffset>
            <feGaussianBlur stdDeviation="2" in="shadowOffsetOuter1" result="shadowBlurOuter1"></feGaussianBlur>
            <feColorMatrix values="0 0 0 0 0   0 0 0 0 0   0 0 0 0 0  0 0 0 0.214900362 0" type="matrix" in="shadowBlurOuter1"></feColorMatrix>
        </filter>
        <path d="M214.632382,215 L232.051593,215 L232.051593,215 C233.156162,215 234.051593,215.895431 234.051593,217 C234.051593,217.094638 234.044876,217.189156 234.031492,217.282843 L232.399795,228.704718 L232.399795,228.704718 C232.259039,229.690015 231.415197,230.421875 230.419896,230.421875 L216.264078,230.421875 L216.264078,230.421875 C215.268777,230.421875 214.424936,229.690015 214.284179,228.704718 L212.652483,217.282843 L212.652483,217.282843 C212.496273,216.189375 213.256071,215.176311 214.349539,215.020101 C214.443225,215.006717 214.537744,215 214.632382,215 Z" id="path-7"></path>
        <filter x="-33.8%" y="-32.4%" width="167.7%" height="190.8%" filterUnits="objectBoundingBox" id="filter-8">
            <feOffset dx="0" dy="2" in="SourceAlpha" result="shadowOffsetOuter1"></feOffset>
            <feGaussianBlur stdDeviation="2" in="shadowOffsetOuter1" result="shadowBlurOuter1"></feGaussianBlur>
            <feColorMatrix values="0 0 0 0 0   0 0 0 0 0   0 0 0 0 0  0 0 0 0.5 0" type="matrix" in="shadowBlurOuter1"></feColorMatrix>
        </filter>
        <polygon id="path-9" points="200.516812 193 221.927494 213.187215 204.798948 229.704027 184 201.564273"></polygon>
        <filter x="-18.5%" y="-13.6%" width="136.9%" height="138.1%" filterUnits="objectBoundingBox" id="filter-10">
            <feOffset dx="0" dy="2" in="SourceAlpha" result="shadowOffsetOuter1"></feOffset>
            <feGaussianBlur stdDeviation="2" in="shadowOffsetOuter1" result="shadowBlurOuter1"></feGaussianBlur>
            <feColorMatrix values="0 0 0 0 0   0 0 0 0 0   0 0 0 0 0  0 0 0 0.187896286 0" type="matrix" in="shadowBlurOuter1"></feColorMatrix>
        </filter>
        <polygon id="path-11" points="243.410682 193 259.927494 201.564273 239.128546 229.704027 222 213.187215"></polygon>
        <filter x="-18.5%" y="-13.6%" width="136.9%" height="138.1%" filterUnits="objectBoundingBox" id="filter-12">
            <feOffset dx="0" dy="2" in="SourceAlpha" result="shadowOffsetOuter1"></feOffset>
            <feGaussianBlur stdDeviation="2" in="shadowOffsetOuter1" result="shadowBlurOuter1"></feGaussianBlur>
            <feColorMatrix values="0 0 0 0 0   0 0 0 0 0   0 0 0 0 0  0 0 0 0.184131567 0" type="matrix" in="shadowBlurOuter1"></feColorMatrix>
        </filter>
        <path d="M221.673971,189.649447 C221.795629,189.65244 221.916578,189.653937 222.036818,189.653937 L222.036818,189.636182 C228.052911,189.345165 235.763552,185.47677 245.168741,178.030995 C254.956481,170.282367 261.889464,160.698538 265.967689,149.279508 C270.453737,149.68733 274.12414,147.240395 276.978897,141.938702 C281.261034,133.986163 279.311871,128.480559 274.531962,126.645358 C271.345356,125.42189 269.344231,125.829713 268.528585,127.868825 C267.636966,116.857617 264.948133,108.293344 260.462085,102.176007 C256.026467,96.127437 243.218045,93.0691546 222.036818,93.0011596 C221.9156,93 221.794651,93.0000962 221.673971,93.0002886 C221.553291,93.0000962 221.432342,93 221.311123,93 C200.129896,93.0691546 187.321474,96.127437 182.885856,102.176007 C178.399809,108.293344 175.710975,116.857617 174.819356,127.868825 C174.003711,125.829713 172.002586,125.42189 168.81598,126.645358 C164.036071,128.480559 162.086908,133.986163 166.369044,141.938702 C169.223802,147.240395 172.894205,149.68733 177.380252,149.279508 C181.458478,160.698538 188.39146,170.282367 198.179201,178.030995 C207.58439,185.47677 215.29503,189.345165 221.311123,189.636182 L221.311123,189.653937 C221.431363,189.653937 221.552313,189.65244 221.673971,189.649447 Z" id="path-13"></path>
        <filter x="-6.1%" y="-5.2%" width="112.1%" height="114.5%" filterUnits="objectBoundingBox" id="filter-14">
            <feOffset dx="0" dy="2" in="SourceAlpha" result="shadowOffsetOuter1"></feOffset>
            <feGaussianBlur stdDeviation="2" in="shadowOffsetOuter1" result="shadowBlurOuter1"></feGaussianBlur>
            <feColorMatrix values="0 0 0 0 0   0 0 0 0 0   0 0 0 0 0  0 0 0 0.198284647 0" type="matrix" in="shadowBlurOuter1"></feColorMatrix>
        </filter>
        <path d="M215,129 L193,129" id="path-15"></path>
        <filter x="-31.8%" y="-250.0%" width="163.6%" height="800.0%" filterUnits="objectBoundingBox" id="filter-16">
            <feOffset dx="0" dy="2" in="SourceAlpha" result="shadowOffsetOuter1"></feOffset>
            <feGaussianBlur stdDeviation="2" in="shadowOffsetOuter1" result="shadowBlurOuter1"></feGaussianBlur>
            <feColorMatrix values="0 0 0 0 0   0 0 0 0 0   0 0 0 0 0  0 0 0 0.0694067029 0" type="matrix" in="shadowBlurOuter1"></feColorMatrix>
        </filter>
        <path d="M201,167 C204.333333,159.666667 209.666667,156 217,156 C224.333333,156 226.333333,157.833333 223,161.5 C220.708333,159.833333 217.302083,159.833333 212.78125,161.5 C208.260417,163.166667 204.333333,165 201,167 Z" id="path-17"></path>
        <filter x="-29.7%" y="-45.5%" width="159.4%" height="227.3%" filterUnits="objectBoundingBox" id="filter-18">
            <feOffset dx="0" dy="2" in="SourceAlpha" result="shadowOffsetOuter1"></feOffset>
            <feGaussianBlur stdDeviation="2" in="shadowOffsetOuter1" result="shadowBlurOuter1"></feGaussianBlur>
            <feColorMatrix values="0 0 0 0 0   0 0 0 0 0   0 0 0 0 0  0 0 0 0.19384058 0" type="matrix" in="shadowBlurOuter1"></feColorMatrix>
        </filter>
        <path d="M222,167 C225.333333,159.666667 230.666667,156 238,156 C245.333333,156 247.333333,157.833333 244,161.5 C241.708333,159.833333 238.302083,159.833333 233.78125,161.5 C229.260417,163.166667 225.333333,165 222,167 Z" id="path-19"></path>
        <filter x="-29.7%" y="-45.5%" width="159.4%" height="227.3%" filterUnits="objectBoundingBox" id="filter-20">
            <feOffset dx="0" dy="2" in="SourceAlpha" result="shadowOffsetOuter1"></feOffset>
            <feGaussianBlur stdDeviation="2" in="shadowOffsetOuter1" result="shadowBlurOuter1"></feGaussianBlur>
            <feColorMatrix values="0 0 0 0 0   0 0 0 0 0   0 0 0 0 0  0 0 0 0.19384058 0" type="matrix" in="shadowBlurOuter1"></feColorMatrix>
        </filter>
        <path d="M217,170 L229,170 C229,174.666667 227,177 223,177 C219,177 217,174.666667 217,170 Z" id="path-21"></path>
        <filter x="-58.3%" y="-71.4%" width="216.7%" height="300.0%" filterUnits="objectBoundingBox" id="filter-22">
            <feOffset dx="0" dy="2" in="SourceAlpha" result="shadowOffsetOuter1"></feOffset>
            <feGaussianBlur stdDeviation="2" in="shadowOffsetOuter1" result="shadowBlurOuter1"></feGaussianBlur>
            <feColorMatrix values="0 0 0 0 0   0 0 0 0 0   0 0 0 0 0  0 0 0 0.0679630888 0" type="matrix" in="shadowBlurOuter1"></feColorMatrix>
        </filter>
        <filter x="-50.0%" y="-57.1%" width="200.0%" height="271.4%" filterUnits="objectBoundingBox" id="filter-23">
            <feGaussianBlur stdDeviation="1.5" in="SourceAlpha" result="shadowBlurInner1"></feGaussianBlur>
            <feOffset dx="0" dy="1" in="shadowBlurInner1" result="shadowOffsetInner1"></feOffset>
            <feComposite in="shadowOffsetInner1" in2="SourceAlpha" operator="arithmetic" k2="-1" k3="1" result="shadowInnerInner1"></feComposite>
            <feColorMatrix values="0 0 0 0 0   0 0 0 0 0   0 0 0 0 0  0 0 0 0.174932065 0" type="matrix" in="shadowInnerInner1"></feColorMatrix>
        </filter>
    </defs>
    <g id="Page-1" stroke="none" stroke-width="1" fill="none" fill-rule="evenodd">
        <g id="20-30">
            <g id="Oval-3" opacity="0.506793478">
                <use fill="black" fill-opacity="1" filter="url(#filter-2)" xlink:href="#path-1"></use>
                <use fill="#006EBC" fill-rule="evenodd" xlink:href="#path-1"></use>
            </g>
            <g id="Combined-Shape">
                <use fill="black" fill-opacity="1" filter="url(#filter-4)" xlink:href="#path-3"></use>
                <use fill="#A2D1FE" fill-rule="evenodd" xlink:href="#path-3"></use>
            </g>
            <polygon id="Path-5" fill="#FAF0DD" points="202 175 242 175 242 217 202 217"></polygon>
            <g id="Rectangle-2">
                <use fill="black" fill-opacity="1" filter="url(#filter-6)" xlink:href="#path-5"></use>
                <use fill="#006EBC" fill-rule="evenodd" xlink:href="#path-5"></use>
            </g>
            <g id="Rectangle">
                <use fill="black" fill-opacity="1" filter="url(#filter-8)" xlink:href="#path-7"></use>
                <use fill="#006EBC" fill-rule="evenodd" xlink:href="#path-7"></use>
            </g>
            <g id="Path-3">
                <use fill="black" fill-opacity="1" filter="url(#filter-10)" xlink:href="#path-9"></use>
                <use fill="#00C9D7" fill-rule="evenodd" xlink:href="#path-9"></use>
            </g>
            <g id="Path-3">
                <use fill="black" fill-opacity="1" filter="url(#filter-12)" xlink:href="#path-11"></use>
                <use fill="#00C9D7" fill-rule="evenodd" xlink:href="#path-11"></use>
            </g>
            <g id="Combined-Shape">
                <use fill="black" fill-opacity="1" filter="url(#filter-14)" xlink:href="#path-13"></use>
                <use fill="#FCEFD8" fill-rule="evenodd" xlink:href="#path-13"></use>
            </g>
            <path d="M266.427997,145.064357 C273.916628,113.861728 269.548259,91.603852 253.322892,78.2907302 C241.894808,68.9138406 230.453844,65.3775426 219,67.6818362 L219,98.2604129 C233.145192,98.4491692 243.962103,101.039758 251.450734,106.032178 C258.939366,111.024599 263.931786,124.035325 266.427997,145.064357 Z" id="Path-7" fill="#000000"></path>
            <path d="M178.547246,145.064357 C171.058615,113.861728 175.426983,91.603852 191.652351,78.2907302 C203.080435,68.9138406 214.521399,65.3775426 225.975243,67.6818362 L225.975243,98.2604129 C211.830051,98.4491692 201.013139,101.039758 193.524508,106.032178 C186.035877,111.024599 181.043457,124.035325 178.547246,145.064357 Z" id="Path-7" fill="#000000"></path>
            <circle id="Oval" fill="#FFFFFF" cx="203.5" cy="136.5" r="5.5"></circle>
            <circle id="Oval-2" fill="#633C0C" cx="203.5" cy="136.5" r="3.5"></circle>
            <circle id="Oval" fill="#FFFFFF" cx="240.5" cy="136.5" r="5.5"></circle>
            <circle id="Oval-2" fill="#633C0C" cx="240.5" cy="136.5" r="3.5"></circle>
            <g id="Path-10" fill-opacity="1" fill="black">
                <use filter="url(#filter-16)" xlink:href="#path-15"></use>
            </g>
            <path d="" id="Path-9" stroke="#979797"></path>
            <g id="Path-8">
                <use fill="black" fill-opacity="1" filter="url(#filter-18)" xlink:href="#path-17"></use>
                <use fill="#000000" fill-rule="evenodd" xlink:href="#path-17"></use>
            </g>
            <g id="Path-8" transform="translate(233.781250, 161.500000) scale(-1, 1) translate(-233.781250, -161.500000) ">
                <use fill="black" fill-opacity="1" filter="url(#filter-20)" xlink:href="#path-19"></use>
                <use fill="#000000" fill-rule="evenodd" xlink:href="#path-19"></use>
            </g>
            <g id="Path-14">
                <use fill="black" fill-opacity="1" filter="url(#filter-22)" xlink:href="#path-21"></use>
                <use fill="#FFFFFF" fill-rule="evenodd" xlink:href="#path-21"></use>
                <use fill="black" fill-opacity="1" filter="url(#filter-23)" xlink:href="#path-21"></use>
            </g>
        </g>
    </g>
</svg>