<?xml version="1.0" encoding="UTF-8" standalone="no"?>
<!-- Created with Inkscape (http://www.inkscape.org/) -->

<svg
   xmlns:dc="http://purl.org/dc/elements/1.1/"
   xmlns:cc="http://creativecommons.org/ns#"
   xmlns:rdf="http://www.w3.org/1999/02/22-rdf-syntax-ns#"
   xmlns:svg="http://www.w3.org/2000/svg"
   xmlns="http://www.w3.org/2000/svg"
   xmlns:sodipodi="http://sodipodi.sourceforge.net/DTD/sodipodi-0.dtd"
   xmlns:inkscape="http://www.inkscape.org/namespaces/inkscape"
   width="230.54187"
   height="285.47717"
   id="svg14755"
   version="1.1"
   inkscape:version="0.48.0 r9654"
   sodipodi:docname="teacher.svg">
  <defs
     id="defs14757">
    <clipPath
       clipPathUnits="userSpaceOnUse"
       id="clipPath7761">
      <path
         inkscape:connector-curvature="0"
         d="m 65.4224,340.111 44.2146,0 0,-34.965 -44.2146,0 0,34.965 z"
         id="path7763" />
    </clipPath>
    <clipPath
       clipPathUnits="userSpaceOnUse"
       id="clipPath7745">
      <path
         inkscape:connector-curvature="0"
         d="m 28.3276,361.119 12.958,0 0,-19.75 -12.958,0 0,19.75 z"
         id="path7747" />
    </clipPath>
    <clipPath
       clipPathUnits="userSpaceOnUse"
       id="clipPath7729">
      <path
         inkscape:connector-curvature="0"
         d="m 100.062,315.989 12.958,0 0,-19.75 -12.958,0 0,19.75 z"
         id="path7731" />
    </clipPath>
    <clipPath
       clipPathUnits="userSpaceOnUse"
       id="clipPath7713">
      <path
         inkscape:connector-curvature="0"
         d="m 52.957,296.711 24.291,0 0,-22.194 -24.291,0 0,22.194 z"
         id="path7715" />
    </clipPath>
    <clipPath
       clipPathUnits="userSpaceOnUse"
       id="clipPath7657">
      <path
         inkscape:connector-curvature="0"
         d="m 133.11,424.287 29.033,0 0,-4.869 -29.033,0 0,4.869 z"
         id="path7659" />
    </clipPath>
    <clipPath
       clipPathUnits="userSpaceOnUse"
       id="clipPath7641">
      <path
         inkscape:connector-curvature="0"
         d="m 76.4307,424.287 29.0323,0 0,-4.869 -29.0323,0 0,4.869 z"
         id="path7643" />
    </clipPath>
    <clipPath
       clipPathUnits="userSpaceOnUse"
       id="clipPath7593">
      <path
         inkscape:connector-curvature="0"
         d="m 137.682,427.852 9.13,0 0,-4.521 -9.13,0 0,4.521 z"
         id="path7595" />
    </clipPath>
    <clipPath
       clipPathUnits="userSpaceOnUse"
       id="clipPath7577">
      <path
         inkscape:connector-curvature="0"
         d="m 80.7075,429.57 9.1304,0 0,-4.521 -9.1304,0 0,4.521 z"
         id="path7579" />
    </clipPath>
    <clipPath
       clipPathUnits="userSpaceOnUse"
       id="clipPath7553">
      <path
         inkscape:connector-curvature="0"
         d="m 86.4658,410.079 8.6817,0 0,-8.43 -8.6817,0 0,8.43 z"
         id="path7555" />
    </clipPath>
    <clipPath
       clipPathUnits="userSpaceOnUse"
       id="clipPath7529">
      <path
         inkscape:connector-curvature="0"
         d="m 136.333,410.079 8.684,0 0,-8.43 -8.684,0 0,8.43 z"
         id="path7531" />
    </clipPath>
    <clipPath
       clipPathUnits="userSpaceOnUse"
       id="clipPath7501">
      <path
         inkscape:connector-curvature="0"
         d="m 103.102,342.456 33.608,0 0,-4.51 -33.608,0 0,4.51 z"
         id="path7503" />
    </clipPath>
    <clipPath
       clipPathUnits="userSpaceOnUse"
       id="clipPath8531">
      <path
         inkscape:connector-curvature="0"
         d="m 712.07,274.921 10.911,0 0,-40.443 -10.911,0 0,40.443 z"
         id="path8533" />
    </clipPath>
    <clipPath
       clipPathUnits="userSpaceOnUse"
       id="clipPath8491">
      <path
         inkscape:connector-curvature="0"
         d="m 753.27,357.945 29.032,0 0,-4.868 -29.032,0 0,4.868 z"
         id="path8493" />
    </clipPath>
    <clipPath
       clipPathUnits="userSpaceOnUse"
       id="clipPath8475">
      <path
         inkscape:connector-curvature="0"
         d="m 696.59,357.945 29.033,0 0,-4.868 -29.033,0 0,4.868 z"
         id="path8477" />
    </clipPath>
    <clipPath
       clipPathUnits="userSpaceOnUse"
       id="clipPath8427">
      <path
         inkscape:connector-curvature="0"
         d="m 757.841,361.512 9.131,0 0,-4.524 -9.131,0 0,4.524 z"
         id="path8429" />
    </clipPath>
    <clipPath
       clipPathUnits="userSpaceOnUse"
       id="clipPath8411">
      <path
         inkscape:connector-curvature="0"
         d="m 700.867,363.229 9.131,0 0,-4.523 -9.131,0 0,4.523 z"
         id="path8413" />
    </clipPath>
    <clipPath
       clipPathUnits="userSpaceOnUse"
       id="clipPath8387">
      <path
         inkscape:connector-curvature="0"
         d="m 706.625,343.738 8.683,0 0,-8.43 -8.683,0 0,8.43 z"
         id="path8389" />
    </clipPath>
    <clipPath
       clipPathUnits="userSpaceOnUse"
       id="clipPath8363">
      <path
         inkscape:connector-curvature="0"
         d="m 756.491,343.738 8.686,0 0,-8.43 -8.686,0 0,8.43 z"
         id="path8365" />
    </clipPath>
    <clipPath
       clipPathUnits="userSpaceOnUse"
       id="clipPath9385">
      <path
         inkscape:connector-curvature="0"
         d="m 728.646,494.4 11.552,0 0,-10.832 -11.552,0 0,10.832 z"
         id="path9387" />
    </clipPath>
    <clipPath
       clipPathUnits="userSpaceOnUse"
       id="clipPath9361">
      <path
         inkscape:connector-curvature="0"
         d="m 712.264,545.327 12.094,0 0,-1.999 -12.094,0 0,1.999 z"
         id="path9363" />
    </clipPath>
    <clipPath
       clipPathUnits="userSpaceOnUse"
       id="clipPath9345">
      <path
         inkscape:connector-curvature="0"
         d="m 727.5,562.475 4.604,0 0,-12.135 -4.604,0 0,12.135 z"
         id="path9347" />
    </clipPath>
    <clipPath
       clipPathUnits="userSpaceOnUse"
       id="clipPath9321">
      <path
         inkscape:connector-curvature="0"
         d="m 625.355,549.184 22.79,0 0,-27.585 -22.79,0 0,27.585 z"
         id="path9323" />
    </clipPath>
    <clipPath
       clipPathUnits="userSpaceOnUse"
       id="clipPath9305">
      <path
         inkscape:connector-curvature="0"
         d="m 623.557,511.403 22.788,0 0,-27.585 -22.788,0 0,27.585 z"
         id="path9307" />
    </clipPath>
    <clipPath
       clipPathUnits="userSpaceOnUse"
       id="clipPath9281">
      <path
         inkscape:connector-curvature="0"
         d="m 719.04,498.16 18.476,0 0,-2.943 -18.476,0 0,2.943 z"
         id="path9283" />
    </clipPath>
    <clipPath
       clipPathUnits="userSpaceOnUse"
       id="clipPath9265">
      <path
         inkscape:connector-curvature="0"
         d="m 755.055,541.736 79.167,0 0,-16.978 -79.167,0 0,16.978 z"
         id="path9267" />
    </clipPath>
    <clipPath
       clipPathUnits="userSpaceOnUse"
       id="clipPath9249">
      <path
         inkscape:connector-curvature="0"
         d="m 754.415,523.354 79.732,0 0,-11.069 -79.732,0 0,11.069 z"
         id="path9251" />
    </clipPath>
    <clipPath
       clipPathUnits="userSpaceOnUse"
       id="clipPath9233">
      <path
         inkscape:connector-curvature="0"
         d="m 754.415,505.279 76.329,0 0,-8.582 -76.329,0 0,8.582 z"
         id="path9235" />
    </clipPath>
    <clipPath
       clipPathUnits="userSpaceOnUse"
       id="clipPath9217">
      <path
         inkscape:connector-curvature="0"
         d="m 745.46,533.234 4.47,0 0,-5.145 -4.47,0 0,5.145 z"
         id="path9219" />
    </clipPath>
    <clipPath
       clipPathUnits="userSpaceOnUse"
       id="clipPath9201">
      <path
         inkscape:connector-curvature="0"
         d="m 745.666,524.691 5.302,0 0,-5.874 -5.302,0 0,5.874 z"
         id="path9203" />
    </clipPath>
    <clipPath
       clipPathUnits="userSpaceOnUse"
       id="clipPath9185">
      <path
         inkscape:connector-curvature="0"
         d="m 746.865,517.504 4.922,0 0,-4.874 -4.922,0 0,4.874 z"
         id="path9187" />
    </clipPath>
    <clipPath
       clipPathUnits="userSpaceOnUse"
       id="clipPath9169">
      <path
         inkscape:connector-curvature="0"
         d="m 747.417,511.044 4.151,0 0,-5.132 -4.151,0 0,5.132 z"
         id="path9171" />
    </clipPath>
    <clipPath
       clipPathUnits="userSpaceOnUse"
       id="clipPath9153">
      <path
         inkscape:connector-curvature="0"
         d="m 748.057,503.99 4.289,0 0,-4.545 -4.289,0 0,4.545 z"
         id="path9155" />
    </clipPath>
    <clipPath
       clipPathUnits="userSpaceOnUse"
       id="clipPath9137">
      <path
         inkscape:connector-curvature="0"
         d="m 719.867,528.384 4.774,0 0,-28.874 -4.774,0 0,28.874 z"
         id="path9139" />
    </clipPath>
    <clipPath
       clipPathUnits="userSpaceOnUse"
       id="clipPath9121">
      <path
         inkscape:connector-curvature="0"
         d="m 667.082,518.611 2.77,0 0,-4.955 -2.77,0 0,4.955 z"
         id="path9123" />
    </clipPath>
    <clipPath
       clipPathUnits="userSpaceOnUse"
       id="clipPath9105">
      <path
         inkscape:connector-curvature="0"
         d="m 631.867,530.879 9.827,0 0,-2.229 -9.827,0 0,2.229 z"
         id="path9107" />
    </clipPath>
    <clipPath
       clipPathUnits="userSpaceOnUse"
       id="clipPath9089">
      <path
         inkscape:connector-curvature="0"
         d="m 630.932,502.465 9.828,0 0,-2.229 -9.828,0 0,2.229 z"
         id="path9091" />
    </clipPath>
    <clipPath
       clipPathUnits="userSpaceOnUse"
       id="clipPath9073">
      <path
         inkscape:connector-curvature="0"
         d="m 602.935,497.8 13.854,0 0,-6.374 -13.854,0 0,6.374 z"
         id="path9075" />
    </clipPath>
    <clipPath
       clipPathUnits="userSpaceOnUse"
       id="clipPath9057">
      <path
         inkscape:connector-curvature="0"
         d="m 643.993,517.345 3.818,0 0,-2.357 -3.818,0 0,2.357 z"
         id="path9059" />
    </clipPath>
    <clipPath
       clipPathUnits="userSpaceOnUse"
       id="clipPath9041">
      <path
         inkscape:connector-curvature="0"
         d="m 588.144,565.83 35.26,0 0,-56.445 -35.26,0 0,56.445 z"
         id="path9043" />
    </clipPath>
    <clipPath
       clipPathUnits="userSpaceOnUse"
       id="clipPath9025">
      <path
         inkscape:connector-curvature="0"
         d="m 589.896,558.389 49.061,0 0,-49.004 -49.061,0 0,49.004 z"
         id="path9027" />
    </clipPath>
    <clipPath
       clipPathUnits="userSpaceOnUse"
       id="clipPath9009">
      <path
         inkscape:connector-curvature="0"
         d="m 589.896,509.385 38.021,0 0,-26.764 -38.021,0 0,26.764 z"
         id="path9011" />
    </clipPath>
    <clipPath
       clipPathUnits="userSpaceOnUse"
       id="clipPath8989">
      <path
         inkscape:connector-curvature="0"
         d="m 603.928,521.262 23.035,0 0,-12.924 -23.035,0 0,12.924 z"
         id="path8991" />
    </clipPath>
    <clipPath
       clipPathUnits="userSpaceOnUse"
       id="clipPath8973">
      <path
         inkscape:connector-curvature="0"
         d="m 670.275,541.992 9.711,0 0,-19.077 -9.711,0 0,19.077 z"
         id="path8975" />
    </clipPath>
    <clipPath
       clipPathUnits="userSpaceOnUse"
       id="clipPath8941">
      <path
         inkscape:connector-curvature="0"
         d="m 647.578,540.046 6.185,0 0,-11.132 -6.185,0 0,11.132 z"
         id="path8943" />
    </clipPath>
    <clipPath
       clipPathUnits="userSpaceOnUse"
       id="clipPath8925">
      <path
         inkscape:connector-curvature="0"
         d="m 647.578,503.988 6.185,0 0,-11.133 -6.185,0 0,11.133 z"
         id="path8927" />
    </clipPath>
    <clipPath
       clipPathUnits="userSpaceOnUse"
       id="clipPath8901">
      <path
         inkscape:connector-curvature="0"
         d="m 580.311,575.032 43.954,0 0,-25.151 -43.954,0 0,25.151 z"
         id="path8903" />
    </clipPath>
    <clipPath
       clipPathUnits="userSpaceOnUse"
       id="clipPath8167">
      <path
         inkscape:connector-curvature="0"
         d="m 289.847,309.417 9.072,0 0,-15.508 -9.072,0 0,15.508 z"
         id="path8169" />
    </clipPath>
    <clipPath
       clipPathUnits="userSpaceOnUse"
       id="clipPath8143">
      <path
         inkscape:connector-curvature="0"
         d="m 248.718,353.875 44.215,0 0,-38.951 -44.215,0 0,38.951 z"
         id="path8145" />
    </clipPath>
    <clipPath
       clipPathUnits="userSpaceOnUse"
       id="clipPath8107">
      <path
         inkscape:connector-curvature="0"
         d="m 220.627,374.531 14.782,0 0,-8.747 -14.782,0 0,8.747 z"
         id="path8109" />
    </clipPath>
    <clipPath
       clipPathUnits="userSpaceOnUse"
       id="clipPath8091">
      <path
         inkscape:connector-curvature="0"
         d="m 231.842,396.836 6.455,0 0,-15.097 -6.455,0 0,15.097 z"
         id="path8093" />
    </clipPath>
    <clipPath
       clipPathUnits="userSpaceOnUse"
       id="clipPath8075">
      <path
         inkscape:connector-curvature="0"
         d="m 238.552,418.513 6.455,0 0,-15.097 -6.455,0 0,15.097 z"
         id="path8077" />
    </clipPath>
    <clipPath
       clipPathUnits="userSpaceOnUse"
       id="clipPath8059">
      <path
         inkscape:connector-curvature="0"
         d="m 256.768,486.869 47.608,0 0,-20.556 -47.608,0 0,20.556 z"
         id="path8061" />
    </clipPath>
    <clipPath
       clipPathUnits="userSpaceOnUse"
       id="clipPath8035">
      <path
         inkscape:connector-curvature="0"
         d="m 316.73,437.954 29.033,0 0,-4.868 -29.033,0 0,4.868 z"
         id="path8037" />
    </clipPath>
    <clipPath
       clipPathUnits="userSpaceOnUse"
       id="clipPath8019">
      <path
         inkscape:connector-curvature="0"
         d="m 260.051,437.954 29.032,0 0,-4.868 -29.032,0 0,4.868 z"
         id="path8021" />
    </clipPath>
    <clipPath
       clipPathUnits="userSpaceOnUse"
       id="clipPath7971">
      <path
         inkscape:connector-curvature="0"
         d="m 320.849,441.068 9.13,0 0,-4.524 -9.13,0 0,4.524 z"
         id="path7973" />
    </clipPath>
    <clipPath
       clipPathUnits="userSpaceOnUse"
       id="clipPath7955">
      <path
         inkscape:connector-curvature="0"
         d="m 264.328,443.239 9.13,0 0,-4.524 -9.13,0 0,4.524 z"
         id="path7957" />
    </clipPath>
    <clipPath
       clipPathUnits="userSpaceOnUse"
       id="clipPath7931">
      <path
         inkscape:connector-curvature="0"
         d="m 270.086,423.747 8.682,0 0,-8.43 -8.682,0 0,8.43 z"
         id="path7933" />
    </clipPath>
    <clipPath
       clipPathUnits="userSpaceOnUse"
       id="clipPath7907">
      <path
         inkscape:connector-curvature="0"
         d="m 319.953,423.747 8.684,0 0,-8.43 -8.684,0 0,8.43 z"
         id="path7909" />
    </clipPath>
    <clipPath
       clipPathUnits="userSpaceOnUse"
       id="clipPath7847">
      <path
         inkscape:connector-curvature="0"
         d="m 286.722,356.124 33.608,0 0,-4.51 -33.608,0 0,4.51 z"
         id="path7849" />
    </clipPath>
    <clipPath
       clipPathUnits="userSpaceOnUse"
       id="clipPath7825">
      <path
         inkscape:connector-curvature="0"
         d="m 347.183,310.474 24.291,0 0,-22.194 -24.291,0 0,22.194 z"
         id="path7827" />
    </clipPath>
    <clipPath
       clipPathUnits="userSpaceOnUse"
       id="clipPath7809">
      <path
         inkscape:connector-curvature="0"
         d="m 205.164,359.378 13.811,0 0,-10.525 -13.811,0 0,10.525 z"
         id="path7811" />
    </clipPath>
    <clipPath
       clipPathUnits="userSpaceOnUse"
       id="clipPath7789">
      <path
         inkscape:connector-curvature="0"
         d="m 236.253,310.474 24.291,0 0,-22.194 -24.291,0 0,22.194 z"
         id="path7791" />
    </clipPath>
  </defs>
  <sodipodi:namedview
     id="base"
     pagecolor="#ffffff"
     bordercolor="#666666"
     borderopacity="1.0"
     inkscape:pageopacity="0.0"
     inkscape:pageshadow="2"
     inkscape:zoom="0.98994949"
     inkscape:cx="-54.36636"
     inkscape:cy="247.25406"
     inkscape:document-units="px"
     inkscape:current-layer="layer1"
     showgrid="false"
     fit-margin-top="0"
     fit-margin-left="0"
     fit-margin-right="0"
     fit-margin-bottom="0"
     inkscape:window-width="1366"
     inkscape:window-height="706"
     inkscape:window-x="-8"
     inkscape:window-y="-8"
     inkscape:window-maximized="1" />
  <metadata
     id="metadata14760">
    <rdf:RDF>
      <cc:Work
         rdf:about="">
        <dc:format>image/svg+xml</dc:format>
        <dc:type
           rdf:resource="http://purl.org/dc/dcmitype/StillImage" />
        <dc:title></dc:title>
      </cc:Work>
    </rdf:RDF>
  </metadata>
  <g
     inkscape:label="Layer 1"
     inkscape:groupmode="layer"
     id="layer1"
     transform="translate(-657.81479,-530.37377)">
    <g
       id="g7777"
       transform="matrix(1.25,0,0,-1.25,855.73191,755.4474)">
      <path
         d="m 0,0 -5.064,5.064 -10.794,-9.83 2.357,-6.381 L 0,0 z"
         style="fill:#f9dec5;fill-opacity:1;fill-rule:nonzero;stroke:none"
         id="path7779"
         inkscape:connector-curvature="0" />
    </g>
    <g
       id="g7781"
       transform="matrix(1.25,0,0,-1.25,731.95753,763.10365)">
      <path
         d="m 0,0 c 0,0 -13.653,-31.874 -24.341,-22.532 -10.689,9.341 -18.598,59.441 -19.878,61.152 l 14.075,4.53 c 0,0 12.563,-27.279 14.232,-41.368 l 1.773,8.997 L 0,0 z"
         style="fill:#f9dec5;fill-opacity:1;fill-rule:nonzero;stroke:none"
         id="path7783"
         inkscape:connector-curvature="0" />
    </g>
    <g
       transform="matrix(1.25,0,0,-1.25,404.62716,1151.6186)"
       id="g7785">
      <g
         id="g7787" />
      <g
         id="g7793">
        <g
           clip-path="url(#clipPath7789)"
           id="g7795"
           style="opacity:0.19999701">
          <g
             transform="translate(260.5439,310.4741)"
             id="g7797">
            <path
               d="m 0,0 c 0,0 -9.821,-22.167 -18.485,-22.194 0,0 -4.659,0.111 -5.806,6.662 0,0 8.822,-8.416 24.291,15.532"
               style="fill:#ffffff;fill-opacity:1;fill-rule:nonzero;stroke:none"
               id="path7799"
               inkscape:connector-curvature="0" />
          </g>
        </g>
      </g>
    </g>
    <g
       id="g7801"
       transform="matrix(1.25,0,0,-1.25,693.16104,710.00428)">
      <path
         d="m 0,0 c 0,-4.468 -6.33,-8.09 -14.139,-8.09 -7.808,0 -14.138,3.622 -14.138,8.09 0,4.468 6.33,8.09 14.138,8.09 C -6.33,8.09 0,4.468 0,0"
         style="fill:#f9dec5;fill-opacity:1;fill-rule:nonzero;stroke:none"
         id="path7803"
         inkscape:connector-curvature="0" />
    </g>
    <g
       transform="matrix(1.25,0,0,-1.25,404.62716,1151.6186)"
       id="g7805">
      <g
         id="g7807" />
      <g
         id="g7813">
        <g
           clip-path="url(#clipPath7809)"
           id="g7815"
           style="opacity:0.19999701">
          <g
             transform="translate(218.9746,359.3784)"
             id="g7817">
            <path
               d="m 0,0 c 0,0 -12.462,-2.344 -8.917,-10.525 0,0 -15.606,9.182 8.917,10.525"
               style="fill:#ffffff;fill-opacity:1;fill-rule:nonzero;stroke:none"
               id="path7819"
               inkscape:connector-curvature="0" />
          </g>
        </g>
      </g>
    </g>
    <g
       transform="matrix(1.25,0,0,-1.25,404.62716,1151.6186)"
       id="g7821">
      <g
         id="g7823" />
      <g
         id="g7829">
        <g
           clip-path="url(#clipPath7825)"
           id="g7831"
           style="opacity:0.19999701">
          <g
             transform="translate(347.1826,310.4741)"
             id="g7833">
            <path
               d="m 0,0 c 0,0 9.82,-22.167 18.484,-22.194 0,0 4.661,0.111 5.807,6.662 0,0 -8.822,-8.416 -24.291,15.532"
               style="fill:#ffffff;fill-opacity:1;fill-rule:nonzero;stroke:none"
               id="path7835"
               inkscape:connector-curvature="0" />
          </g>
        </g>
      </g>
    </g>
    <g
       id="g7837"
       transform="matrix(1.25,0,0,-1.25,762.89616,706.97565)">
      <path
         d="m 0,0 c 0,0 3.452,-0.603 5.285,1.229 l 23.521,0 c 0,0 1.691,-1.717 4.968,-0.858 L 36.524,-7.773 -6.247,-5.411 0,0 z"
         style="fill:#f9dec5;fill-opacity:1;fill-rule:nonzero;stroke:none"
         id="path7839"
         inkscape:connector-curvature="0" />
    </g>
    <path
       d="m 798.90341,705.43865 -29.40125,0 0,-26.1325 29.40125,0 0,26.1325 z"
       style="fill:#f9dec5;fill-opacity:1;fill-rule:nonzero;stroke:none"
       id="path7841"
       inkscape:connector-curvature="0" />
    <g
       transform="matrix(1.25,0,0,-1.25,404.62716,1151.6186)"
       id="g7843">
      <g
         id="g7845" />
      <g
         id="g7851">
        <g
           clip-path="url(#clipPath7847)"
           id="g7853"
           style="opacity:0.5">
          <g
             transform="translate(320.2646,356.063)"
             id="g7855">
            <path
               d="m 0,0 c -11.557,-6.546 -24.215,-2.349 -29.646,0.061 -1.615,-0.686 -3.491,-0.483 -3.896,-0.426 4.442,-2.529 10.166,-4.084 16.474,-4.084 6.619,0 12.613,1.706 17.133,4.461 C 0.043,0.006 0.021,0.006 0,0"
               style="fill:#f7931e;fill-opacity:1;fill-rule:nonzero;stroke:none"
               id="path7857"
               inkscape:connector-curvature="0" />
          </g>
        </g>
      </g>
    </g>
    <g
       id="g7859"
       transform="matrix(1.25,0,0,-1.25,733.54016,641.63152)">
      <path
         d="m 0,0 c 0,-7.559 -6.127,-13.686 -13.686,-13.686 -7.558,0 -13.686,6.127 -13.686,13.686 0,7.559 6.128,13.687 13.686,13.687 C -6.127,13.687 0,7.559 0,0"
         style="fill:#000000;fill-opacity:1;fill-rule:nonzero;stroke:none"
         id="path7861"
         inkscape:connector-curvature="0" />
    </g>
    <g
       id="g7863"
       transform="matrix(1.25,0,0,-1.25,725.66778,667.87165)">
      <path
         d="m 0,0 c 0,-7.559 -6.127,-13.687 -13.686,-13.687 -7.558,0 -13.686,6.128 -13.686,13.687 0,7.559 6.128,13.687 13.686,13.687 C -6.127,13.687 0,7.559 0,0"
         style="fill:#000000;fill-opacity:1;fill-rule:nonzero;stroke:none"
         id="path7865"
         inkscape:connector-curvature="0" />
    </g>
    <g
       id="g7867"
       transform="matrix(1.25,0,0,-1.25,710.99741,687.4469)">
      <path
         d="m 0,0 c -0.63,-1.889 -4.925,-2.134 -9.6,-0.571 -4.672,1.559 -7.949,4.334 -7.319,6.221 0.626,1.871 4.917,2.136 9.59,0.577 C -2.655,4.663 0.624,1.869 0,0"
         style="fill:#db3c70;fill-opacity:1;fill-rule:nonzero;stroke:none"
         id="path7869"
         inkscape:connector-curvature="0" />
    </g>
    <g
       id="g7871"
       transform="matrix(1.25,0,0,-1.25,696.34591,682.2894)">
      <path
         d="m 0,0 c 0,0 -11.321,-5.71 -15.758,-3.684 0,0 5.774,-17.046 24.017,-16 0,0 -3.598,13.545 -1.273,16.657 0,0 -3.394,2.427 -6.986,3.027"
         style="fill:#000000;fill-opacity:1;fill-rule:nonzero;stroke:none"
         id="path7873"
         inkscape:connector-curvature="0" />
    </g>
    <g
       id="g7875"
       transform="matrix(1.25,0,0,-1.25,831.46429,641.63152)">
      <path
         d="m 0,0 c 0,-7.559 6.127,-13.686 13.686,-13.686 7.558,0 13.686,6.127 13.686,13.686 0,7.559 -6.128,13.687 -13.686,13.687 C 6.127,13.687 0,7.559 0,0"
         style="fill:#000000;fill-opacity:1;fill-rule:nonzero;stroke:none"
         id="path7877"
         inkscape:connector-curvature="0" />
    </g>
    <g
       id="g7879"
       transform="matrix(1.25,0,0,-1.25,839.33666,667.87165)">
      <path
         d="m 0,0 c 0,-7.559 6.128,-13.687 13.686,-13.687 7.558,0 13.686,6.128 13.686,13.687 0,7.559 -6.128,13.687 -13.686,13.687 C 6.128,13.687 0,7.559 0,0"
         style="fill:#000000;fill-opacity:1;fill-rule:nonzero;stroke:none"
         id="path7881"
         inkscape:connector-curvature="0" />
    </g>
    <g
       id="g7883"
       transform="matrix(1.25,0,0,-1.25,854.00703,687.4469)">
      <path
         d="M 0,0 C 0.63,-1.889 4.925,-2.134 9.6,-0.571 14.272,0.988 17.55,3.763 16.919,5.65 16.294,7.521 12.002,7.786 7.329,6.227 2.655,4.663 -0.624,1.869 0,0"
         style="fill:#db3c70;fill-opacity:1;fill-rule:nonzero;stroke:none"
         id="path7885"
         inkscape:connector-curvature="0" />
    </g>
    <g
       id="g7887"
       transform="matrix(1.25,0,0,-1.25,868.65916,682.2894)">
      <path
         d="m 0,0 c 0,0 11.32,-5.71 15.758,-3.684 0,0 -5.774,-17.046 -24.017,-16 0,0 3.597,13.545 1.273,16.657 0,0 3.394,2.427 6.986,3.027"
         style="fill:#000000;fill-opacity:1;fill-rule:nonzero;stroke:none"
         id="path7889"
         inkscape:connector-curvature="0" />
    </g>
    <g
       id="g7891"
       transform="matrix(1.25,0,0,-1.25,854.24016,609.9859)">
      <path
         d="m 0,0 c 0,-35.177 -25.492,-63.69 -56.941,-63.69 -31.448,0 -56.942,28.513 -56.942,63.69 0,35.175 25.494,63.689 56.942,63.689 C -25.492,63.689 0,35.175 0,0"
         style="fill:#f9dec5;fill-opacity:1;fill-rule:nonzero;stroke:none"
         id="path7893"
         inkscape:connector-curvature="0" />
    </g>
    <g
       id="g7895"
       transform="matrix(1.25,0,0,-1.25,823.32341,626.1054)">
      <path
         d="m 0,0 c 0,-4.491 -3.644,-8.135 -8.135,-8.135 -4.491,0 -8.132,3.644 -8.132,8.135 0,4.492 3.641,8.133 8.132,8.133 C -3.644,8.133 0,4.492 0,0"
         style="fill:#000000;fill-opacity:1;fill-rule:nonzero;stroke:none"
         id="path7897"
         inkscape:connector-curvature="0" />
    </g>
    <g
       id="g7899"
       transform="matrix(1.25,0,0,-1.25,814.16203,623.01702)">
      <path
         d="m 0,0 c 0,-1.809 -1.468,-3.275 -3.275,-3.275 -1.813,0 -3.281,1.466 -3.281,3.275 0,1.813 1.468,3.28 3.281,3.28 C -1.468,3.28 0,1.813 0,0"
         style="fill:#ffffff;fill-opacity:1;fill-rule:nonzero;stroke:none"
         id="path7901"
         inkscape:connector-curvature="0" />
    </g>
    <g
       transform="matrix(1.25,0,0,-1.25,404.62716,1151.6186)"
       id="g7903">
      <g
         id="g7905" />
      <g
         id="g7911">
        <g
           clip-path="url(#clipPath7907)"
           id="g7913"
           style="opacity:0.19999701">
          <g
             transform="translate(328.6367,419.5317)"
             id="g7915">
            <path
               d="m 0,0 c 0,-2.326 -1.944,-4.215 -4.342,-4.215 -2.399,0 -4.342,1.889 -4.342,4.215 0,2.329 1.943,4.215 4.342,4.215 C -1.944,4.215 0,2.329 0,0"
               style="fill:#ffffff;fill-opacity:1;fill-rule:nonzero;stroke:none"
               id="path7917"
               inkscape:connector-curvature="0" />
          </g>
        </g>
      </g>
    </g>
    <g
       id="g7919"
       transform="matrix(1.25,0,0,-1.25,758.36554,626.1054)">
      <path
         d="m 0,0 c 0,-4.491 -3.641,-8.135 -8.134,-8.135 -4.491,0 -8.135,3.644 -8.135,8.135 0,4.492 3.644,8.133 8.135,8.133 C -3.641,8.133 0,4.492 0,0"
         style="fill:#000000;fill-opacity:1;fill-rule:nonzero;stroke:none"
         id="path7921"
         inkscape:connector-curvature="0" />
    </g>
    <g
       id="g7923"
       transform="matrix(1.25,0,0,-1.25,751.83116,623.01702)">
      <path
         d="m 0,0 c 0,-1.809 -1.468,-3.275 -3.28,-3.275 -1.812,0 -3.28,1.466 -3.28,3.275 0,1.813 1.468,3.28 3.28,3.28 C -1.468,3.28 0,1.813 0,0"
         style="fill:#ffffff;fill-opacity:1;fill-rule:nonzero;stroke:none"
         id="path7925"
         inkscape:connector-curvature="0" />
    </g>
    <g
       transform="matrix(1.25,0,0,-1.25,404.62716,1151.6186)"
       id="g7927">
      <g
         id="g7929" />
      <g
         id="g7935">
        <g
           clip-path="url(#clipPath7931)"
           id="g7937"
           style="opacity:0.19999701">
          <g
             transform="translate(278.7676,419.5317)"
             id="g7939">
            <path
               d="m 0,0 c 0,-2.326 -1.943,-4.215 -4.34,-4.215 -2.398,0 -4.342,1.889 -4.342,4.215 0,2.329 1.944,4.215 4.342,4.215 C -1.943,4.215 0,2.329 0,0"
               style="fill:#ffffff;fill-opacity:1;fill-rule:nonzero;stroke:none"
               id="path7941"
               inkscape:connector-curvature="0" />
          </g>
        </g>
      </g>
    </g>
    <g
       id="g7943"
       transform="matrix(1.25,0,0,-1.25,800.54029,608.36003)">
      <path
         d="M 0,0 C 0,0 14.362,6.389 29.032,2.885 29.032,2.885 17.113,14.427 0,0"
         style="fill:#000000;fill-opacity:1;fill-rule:nonzero;stroke:none"
         id="path7945"
         inkscape:connector-curvature="0" />
    </g>
    <g
       id="g7947"
       transform="matrix(1.25,0,0,-1.25,765.98153,608.36003)">
      <path
         d="m 0,0 c 0,0 -14.363,6.389 -29.032,2.885 0,0 11.919,11.542 29.032,-2.885"
         style="fill:#000000;fill-opacity:1;fill-rule:nonzero;stroke:none"
         id="path7949"
         inkscape:connector-curvature="0" />
    </g>
    <g
       transform="matrix(1.25,0,0,-1.25,404.62716,1151.6186)"
       id="g7951">
      <g
         id="g7953" />
      <g
         id="g7959">
        <g
           clip-path="url(#clipPath7955)"
           id="g7961"
           style="opacity:0.19999701">
          <g
             transform="translate(264.3276,438.7153)"
             id="g7963">
            <path
               d="m 0,0 c 0,0 3.731,4.757 9.131,4.515 0,0 -4.028,-1.13 -6.983,-4.084 C 2.148,0.431 0.375,0.378 0,0"
               style="fill:#ffffff;fill-opacity:1;fill-rule:nonzero;stroke:none"
               id="path7965"
               inkscape:connector-curvature="0" />
          </g>
        </g>
      </g>
    </g>
    <g
       transform="matrix(1.25,0,0,-1.25,404.62716,1151.6186)"
       id="g7967">
      <g
         id="g7969" />
      <g
         id="g7975">
        <g
           clip-path="url(#clipPath7971)"
           id="g7977"
           style="opacity:0.19999701">
          <g
             transform="translate(320.8486,436.5444)"
             id="g7979">
            <path
               d="m 0,0 c 0,0 3.73,4.756 9.131,4.515 0,0 -4.028,-1.13 -6.983,-4.084 C 2.148,0.431 0.375,0.377 0,0"
               style="fill:#ffffff;fill-opacity:1;fill-rule:nonzero;stroke:none"
               id="path7981"
               inkscape:connector-curvature="0" />
          </g>
        </g>
      </g>
    </g>
    <g
       id="g7983"
       transform="matrix(1.25,0,0,-1.25,863.32716,609.02527)">
      <path
         d="m 0,0 c 0,-7.235 -4.162,-13.1 -9.293,-13.1 -5.131,0 -9.293,5.865 -9.293,13.1 0,7.233 4.162,13.099 9.293,13.099 C -4.162,13.099 0,7.233 0,0"
         style="fill:#f9dec5;fill-opacity:1;fill-rule:nonzero;stroke:none"
         id="path7985"
         inkscape:connector-curvature="0" />
    </g>
    <g
       id="g7987"
       transform="matrix(1.25,0,0,-1.25,724.90179,608.37703)">
      <path
         d="m 0,0 c 0,-7.234 -4.162,-13.101 -9.293,-13.101 -5.131,0 -9.292,5.867 -9.292,13.101 0,7.234 4.161,13.1 9.292,13.1 C -4.162,13.1 0,7.234 0,0"
         style="fill:#f9dec5;fill-opacity:1;fill-rule:nonzero;stroke:none"
         id="path7989"
         inkscape:connector-curvature="0" />
    </g>
    <g
       id="g7991"
       transform="matrix(1.25,0,0,-1.25,743.48028,645.1214)">
      <path
         d="m 0,0 c 0,-3.436 -3.561,-6.222 -7.952,-6.222 -4.393,0 -7.954,2.786 -7.954,6.222 0,3.436 3.561,6.22 7.954,6.22 C -3.561,6.22 0,3.436 0,0"
         style="fill:#f5c384;fill-opacity:1;fill-rule:nonzero;stroke:none"
         id="path7993"
         inkscape:connector-curvature="0" />
    </g>
    <g
       id="g7995"
       transform="matrix(1.25,0,0,-1.25,842.53728,645.49015)">
      <path
         d="m 0,0 c 0,-3.6 -3.73,-6.518 -8.329,-6.518 -4.602,0 -8.332,2.918 -8.332,6.518 0,3.598 3.73,6.515 8.332,6.515 C -3.73,6.515 0,3.598 0,0"
         style="fill:#f5c384;fill-opacity:1;fill-rule:nonzero;stroke:none"
         id="path7997"
         inkscape:connector-curvature="0" />
    </g>
    <g
       id="g7999"
       transform="matrix(1.25,0,0,-1.25,857.29441,599.06803)">
      <path
         d="M 0,0 C 0,0 -11.756,0.628 -6.717,-10.498"
         style="fill:none;stroke:#f5c384;stroke-width:0.5;stroke-linecap:butt;stroke-linejoin:miter;stroke-miterlimit:4;stroke-opacity:1;stroke-dasharray:none"
         id="path8001"
         inkscape:connector-curvature="0" />
    </g>
    <g
       id="g8003"
       transform="matrix(1.25,0,0,-1.25,856.50828,609.98352)">
      <path
         d="m 0,0 c 0,-1.977 -1.6,-3.576 -3.573,-3.576 -1.974,0 -3.573,1.599 -3.573,3.576 0,1.972 1.599,3.57 3.573,3.57 C -1.6,3.57 0,1.972 0,0"
         style="fill:#f5c384;fill-opacity:1;fill-rule:nonzero;stroke:none"
         id="path8005"
         inkscape:connector-curvature="0" />
    </g>
    <g
       id="g8007"
       transform="matrix(1.25,0,0,-1.25,708.25816,599.06803)">
      <path
         d="M 0,0 C 0,0 11.757,0.628 6.718,-10.498"
         style="fill:none;stroke:#f5c384;stroke-width:0.5;stroke-linecap:butt;stroke-linejoin:miter;stroke-miterlimit:4;stroke-opacity:1;stroke-dasharray:none"
         id="path8009"
         inkscape:connector-curvature="0" />
    </g>
    <g
       id="g8011"
       transform="matrix(1.25,0,0,-1.25,709.04491,609.98352)">
      <path
         d="m 0,0 c 0,-1.977 1.599,-3.576 3.573,-3.576 1.974,0 3.573,1.599 3.573,3.576 0,1.972 -1.599,3.57 -3.573,3.57 C 1.599,3.57 0,1.972 0,0"
         style="fill:#f5c384;fill-opacity:1;fill-rule:nonzero;stroke:none"
         id="path8013"
         inkscape:connector-curvature="0" />
    </g>
    <g
       transform="matrix(1.25,0,0,-1.25,404.62716,1151.6186)"
       id="g8015">
      <g
         id="g8017" />
      <g
         id="g8023">
        <g
           clip-path="url(#clipPath8019)"
           id="g8025"
           style="opacity:0.5">
          <g
             transform="translate(260.0513,436.7886)"
             id="g8027">
            <path
               d="M 0,0 C 0,0 16.761,4.33 29.032,-3.702 29.032,-3.702 14.5,1.891 0,0"
               style="fill:#f7931e;fill-opacity:1;fill-rule:nonzero;stroke:none"
               id="path8029"
               inkscape:connector-curvature="0" />
          </g>
        </g>
      </g>
    </g>
    <g
       transform="matrix(1.25,0,0,-1.25,404.62716,1151.6186)"
       id="g8031">
      <g
         id="g8033" />
      <g
         id="g8039">
        <g
           clip-path="url(#clipPath8035)"
           id="g8041"
           style="opacity:0.5">
          <g
             transform="translate(345.7627,436.7886)"
             id="g8043">
            <path
               d="m 0,0 c 0,0 -16.762,4.33 -29.032,-3.702 0,0 14.532,5.593 29.032,3.702"
               style="fill:#f7931e;fill-opacity:1;fill-rule:nonzero;stroke:none"
               id="path8045"
               inkscape:connector-curvature="0" />
          </g>
        </g>
      </g>
    </g>
    <g
       id="g8047"
       transform="matrix(1.25,0,0,-1.25,713.28566,592.00252)">
      <path
         d="m 0,0 c 0,0 -3.167,-13.723 0,-26.2 0,0 2.826,21.876 17.171,32.721 0,0 -2.099,-7.13 -2.099,-11.196 0,0 11.195,12.245 25.191,12.245 0,0 -6.561,-3.386 -10.146,-10.145 0,0 12.946,8.046 24.141,10.495 0,0 8.651,-2.355 16.794,-10.496 0,0 -2.1,8.397 -5.948,12.246 0,0 19.576,-4.229 24.841,-12.246 0,0 -0.525,6.821 -3.149,9.447 0,0 22.292,-10.344 22.292,-31.936 0,0 3.305,15.883 1.652,24.545 0,0 5.795,-8.703 5.795,-12.902 0,0 -2.819,62.725 -60.713,62.725 0,0 -56.426,-0.515 -61.009,-61.009 0,0 2.438,8.957 5.187,11.706"
         style="fill:#000000;fill-opacity:1;fill-rule:nonzero;stroke:none"
         id="path8049"
         inkscape:connector-curvature="0" />
    </g>
    <g
       id="g8051"
       transform="matrix(1.25,0,0,-1.25,719.22741,574.76865)">
      <path
         d="M 0,0 C 0,0 48.402,60.131 102.833,-1.645 102.833,-1.645 56.782,42.929 0,0"
         style="fill:#db3c70;fill-opacity:1;fill-rule:nonzero;stroke:none"
         id="path8053"
         inkscape:connector-curvature="0" />
    </g>
    <g
       transform="matrix(1.25,0,0,-1.25,404.62716,1151.6186)"
       id="g8055">
      <g
         id="g8057" />
      <g
         id="g8063">
        <g
           clip-path="url(#clipPath8059)"
           id="g8065"
           style="opacity:0.19999701">
          <g
             transform="translate(256.7681,466.313)"
             id="g8067">
            <path
               d="m 0,0 c 0,0 23.861,23.194 47.608,20.308 0,0 -0.426,-0.295 -1.738,-2.231 0,0 1.148,-1.115 1.738,-1.705 0,0 -23.187,3.861 -47.608,-16.372"
               style="fill:#ffffff;fill-opacity:1;fill-rule:nonzero;stroke:none"
               id="path8069"
               inkscape:connector-curvature="0" />
          </g>
        </g>
      </g>
    </g>
    <g
       transform="matrix(1.25,0,0,-1.25,404.62716,1151.6186)"
       id="g8071">
      <g
         id="g8073" />
      <g
         id="g8079">
        <g
           clip-path="url(#clipPath8075)"
           id="g8081"
           style="opacity:0.19999701">
          <g
             transform="translate(244.2466,410.2817)"
             id="g8083">
            <path
               d="M 0,0 C -1.148,-4.151 -3.185,-7.212 -4.548,-6.834 -5.91,-6.457 -6.083,-2.786 -4.935,1.365 -3.787,5.517 -1.749,8.577 -0.386,8.2 0.977,7.822 1.149,4.151 0,0"
               style="fill:#ffffff;fill-opacity:1;fill-rule:nonzero;stroke:none"
               id="path8085"
               inkscape:connector-curvature="0" />
          </g>
        </g>
      </g>
    </g>
    <g
       transform="matrix(1.25,0,0,-1.25,404.62716,1151.6186)"
       id="g8087">
      <g
         id="g8089" />
      <g
         id="g8095">
        <g
           clip-path="url(#clipPath8091)"
           id="g8097"
           style="opacity:0.19999701">
          <g
             transform="translate(237.5366,388.605)"
             id="g8099">
            <path
               d="M 0,0 C -1.148,-4.151 -3.185,-7.212 -4.548,-6.835 -5.91,-6.458 -6.083,-2.786 -4.934,1.366 -3.786,5.517 -1.749,8.577 -0.387,8.2 0.977,7.823 1.149,4.151 0,0"
               style="fill:#ffffff;fill-opacity:1;fill-rule:nonzero;stroke:none"
               id="path8101"
               inkscape:connector-curvature="0" />
          </g>
        </g>
      </g>
    </g>
    <g
       transform="matrix(1.25,0,0,-1.25,404.62716,1151.6186)"
       id="g8103">
      <g
         id="g8105" />
      <g
         id="g8111">
        <g
           clip-path="url(#clipPath8107)"
           id="g8113"
           style="opacity:0.19999701">
          <g
             transform="translate(220.627,369.8081)"
             id="g8115">
            <path
               d="m 0,0 c 0,0 9.096,2.099 12.77,4.723 l 2.012,-0.701 c 0,0 -7.96,-7.433 -12.858,-8.046 C 1.924,-4.024 0,-1.556 0,0"
               style="fill:#ffffff;fill-opacity:1;fill-rule:nonzero;stroke:none"
               id="path8117"
               inkscape:connector-curvature="0" />
          </g>
        </g>
      </g>
    </g>
    <g
       id="g8119"
       transform="matrix(1.25,0,0,-1.25,782.92916,674.42203)">
      <path
         d="m 0,0 c -4.954,0 -9.499,1.057 -13.068,2.813 0.922,-3.792 6.306,-6.706 12.828,-6.706 6.377,0 11.67,2.787 12.762,6.458 C 9.039,0.962 4.711,0 0,0"
         style="fill:#e83e2e;fill-opacity:1;fill-rule:nonzero;stroke:none"
         id="path8121"
         inkscape:connector-curvature="0" />
    </g>
    <g
       id="g8123"
       transform="matrix(1.25,0,0,-1.25,807.06128,704.79915)">
      <path
         d="m 0,0 c -4.664,-3.516 -11.47,-5.746 -19.075,-5.746 -7.184,0 -13.66,1.987 -18.287,5.168 -18.431,-5.92 -33.385,-19.922 -40.92,-37.968 l 121.24,0 C 35.147,-19.845 19.358,-5.522 0,0"
         style="fill:#fbb03b;fill-opacity:1;fill-rule:nonzero;stroke:none"
         id="path8125"
         inkscape:connector-curvature="0" />
    </g>
    <g
       id="g8127"
       transform="matrix(1.25,0,0,-1.25,744.80541,752.96565)">
      <path
         d="m 0,0 c 0,0 -4.157,-32.236 -0.157,-45.302 0,0 34,-11.264 69,0 0,0 -1.403,29.776 -5.701,45.302"
         style="fill:#fbb03b;fill-opacity:1;fill-rule:nonzero;stroke:none"
         id="path8129"
         inkscape:connector-curvature="0" />
    </g>
    <g
       id="g8131"
       transform="matrix(1.25,0,0,-1.25,709.09491,752.96565)">
      <path
         d="m 0,0 c 0,0 14.228,-3.502 23.8,-10.51 0,0 6.731,16.954 12.949,23.172"
         style="fill:#fbb03b;fill-opacity:1;fill-rule:nonzero;stroke:none"
         id="path8133"
         inkscape:connector-curvature="0" />
    </g>
    <g
       id="g8135"
       transform="matrix(1.25,0,0,-1.25,860.64528,752.96565)">
      <path
         d="m 0,0 c 0,0 -14.619,-6.288 -19.356,-16.354 0,0 -14.803,24.278 -17.172,26.647"
         style="fill:#fbb03b;fill-opacity:1;fill-rule:nonzero;stroke:none"
         id="path8137"
         inkscape:connector-curvature="0" />
    </g>
    <g
       transform="matrix(1.25,0,0,-1.25,404.62716,1151.6186)"
       id="g8139">
      <g
         id="g8141" />
      <g
         id="g8147">
        <g
           clip-path="url(#clipPath8143)"
           id="g8149"
           style="opacity:0.19999701">
          <g
             transform="translate(292.9326,353.061)"
             id="g8151">
            <path
               d="m 0,0 c -0.856,0.242 -1.69,0.513 -2.496,0.813 -25.962,-7.584 -41.718,-34.964 -41.718,-34.964 l 13.574,-3.986 C -19.214,-17.918 -5.637,-3.962 0,0"
               style="fill:#ffffff;fill-opacity:1;fill-rule:nonzero;stroke:none"
               id="path8153"
               inkscape:connector-curvature="0" />
          </g>
        </g>
      </g>
    </g>
    <g
       id="g8155"
       transform="matrix(1.25,0,0,-1.25,855.73191,755.4474)">
      <path
         d="m 0,0 c 0,0 21.657,-32.543 8.041,-36.559 -13.613,-4.018 -60.148,16.158 -62.279,15.995 l 3.719,14.31 c 0,0 29.764,-4.015 42.552,-10.157 l -5.534,5.264 L 0,0 z"
         style="fill:#f9dec5;fill-opacity:1;fill-rule:nonzero;stroke:none"
         id="path8157"
         inkscape:connector-curvature="0" />
    </g>
    <g
       id="g8159"
       transform="matrix(1.25,0,0,-1.25,788.66041,758.94102)">
      <path
         d="m 0,0 c 6.183,-3.926 8.015,-12.123 4.088,-18.309 -3.926,-6.184 -12.123,-8.014 -18.307,-4.088 -6.183,3.926 -8.014,12.123 -4.087,18.307 C -14.379,2.096 -6.183,3.925 0,0"
         style="fill:#f9dec5;fill-opacity:1;fill-rule:nonzero;stroke:none"
         id="path8161"
         inkscape:connector-curvature="0" />
    </g>
    <g
       transform="matrix(1.25,0,0,-1.25,404.62716,1151.6186)"
       id="g8163">
      <g
         id="g8165" />
      <g
         id="g8171">
        <g
           clip-path="url(#clipPath8167)"
           id="g8173"
           style="opacity:0.19999701">
          <g
             transform="translate(296.9063,293.9092)"
             id="g8175">
            <path
               d="M 0,0 C 0,0 -7.274,11.098 2.013,15.158 2.013,15.158 -16.982,19.172 0,0"
               style="fill:#ffffff;fill-opacity:1;fill-rule:nonzero;stroke:none"
               id="path8177"
               inkscape:connector-curvature="0" />
          </g>
        </g>
      </g>
    </g>
  </g>
</svg>
