<?xml version="1.0" encoding="UTF-8"?>
<svg width="260px" height="295px" viewBox="0 0 260 295" version="1.1" xmlns="http://www.w3.org/2000/svg" xmlns:xlink="http://www.w3.org/1999/xlink">
    <!-- Generator: Sketch 47.1 (45422) - http://www.bohemiancoding.com/sketch -->
    <title>image1</title>
    <desc>Created with Sketch.</desc>
    <defs>
        <path d="M95.9459459,138.175676 L96.3990868,138.100152 L96.4550625,138.069912 L96.4681198,138.088647 L99,137.666667 L99,118 L139,118 L139,138.335552 C139.028699,138.312467 139.057874,138.290574 139.087526,138.269872 L139,138 C139.173847,138.020616 139.347273,138.041191 139.520279,138.061723 C139.811748,137.976781 140.138287,137.979511 140.499895,138.069912 C140.636137,138.103973 140.807938,138.160791 141.013279,138.239113 C161.279653,140.64979 175.60856,142.467522 184,143.692308 C192.532347,144.93766 198.480045,155.071886 201.843094,174.094985 C202.086938,174.39961 202.327263,174.725342 202.564071,175.072182 C185.303322,204.190953 153.558434,223.712641 117.254011,223.712641 C81.7428683,223.712641 50.5941784,205.03476 33.0960751,176.967132 L33,177 C33.0079978,176.950413 33.016011,176.900883 33.0240396,176.851407 C33.0160214,176.838506 33.0080093,176.825608 33,176.812709 C33.0314166,176.674717 33.0628331,176.544657 33.0942497,176.422531 C36.4458261,156.12837 42.4144096,145.32086 51,144 C59.6666667,142.666667 74.6666667,140.666667 96,138 L95.9459459,138.175676 Z M139,155.473276 L139,157.053404 L139.276427,157.03366 C139.179836,156.502411 139.087694,155.982283 139,155.473276 Z" id="path-1"></path>
        <filter x="-4.1%" y="-4.7%" width="108.3%" height="113.2%" filterUnits="objectBoundingBox" id="filter-2">
            <feOffset dx="0" dy="2" in="SourceAlpha" result="shadowOffsetOuter1"></feOffset>
            <feGaussianBlur stdDeviation="2" in="shadowOffsetOuter1" result="shadowBlurOuter1"></feGaussianBlur>
            <feColorMatrix values="0 0 0 0 0   0 0 0 0 0   0 0 0 0 0  0 0 0 0.113337862 0" type="matrix" in="shadowBlurOuter1"></feColorMatrix>
        </filter>
        <path d="M112,69 L90,69" id="path-3"></path>
        <filter x="-31.8%" y="-250.0%" width="163.6%" height="800.0%" filterUnits="objectBoundingBox" id="filter-4">
            <feOffset dx="0" dy="2" in="SourceAlpha" result="shadowOffsetOuter1"></feOffset>
            <feGaussianBlur stdDeviation="2" in="shadowOffsetOuter1" result="shadowBlurOuter1"></feGaussianBlur>
            <feColorMatrix values="0 0 0 0 0   0 0 0 0 0   0 0 0 0 0  0 0 0 0.0694067029 0" type="matrix" in="shadowBlurOuter1"></feColorMatrix>
        </filter>
        <path d="M112.341572,165.094199 C97.1796043,164.424361 85.7324136,156.059628 78,140 L59,143 L59,206 C74.3854151,215.231249 90.1653485,220.911833 106.3398,223.041752 C108.283446,223.663661 110.439044,224 112.815192,224 C114.182063,224 115.546198,223.975369 116.907596,223.926106 C118.268994,223.975369 119.633128,224 121,224 C123.376148,224 125.531746,223.663661 127.475391,223.041752 C143.649843,220.911833 159.429777,215.231249 174.815192,206 L174.815192,143 L155.815192,140 C148.082778,156.059628 136.635587,164.424361 121.47362,165.094199 C120.354228,164.946416 119.195747,164.911426 118,165 C117.633935,165.027116 117.2698,165.050234 116.907596,165.069354 C116.545391,165.050234 116.181257,165.027116 115.815192,165 C114.619445,164.911426 113.460964,164.946416 112.341572,165.094199 Z" id="path-5"></path>
        <filter x="-6.0%" y="-6.0%" width="112.1%" height="116.7%" filterUnits="objectBoundingBox" id="filter-6">
            <feOffset dx="0" dy="2" in="SourceAlpha" result="shadowOffsetOuter1"></feOffset>
            <feGaussianBlur stdDeviation="2" in="shadowOffsetOuter1" result="shadowBlurOuter1"></feGaussianBlur>
            <feColorMatrix values="0 0 0 0 0   0 0 0 0 0   0 0 0 0 0  0 0 0 0.5 0" type="matrix" in="shadowBlurOuter1"></feColorMatrix>
        </filter>
        <path d="M52,124.786769 C43.4888825,125.848354 34.8767409,122.94606 26.1635753,116.079886 C17.3387536,109.125726 12.6388625,99.9354859 12.0639019,88.5091674 C8.019192,88.8751758 4.70988389,86.6791251 2.13597759,81.9210151 C-1.72488187,74.7838501 0.0325218907,69.8427359 4.34218299,68.1956979 C7.2152904,67.0976725 9.019545,67.463681 9.7549468,69.2937233 C10.5588484,59.4114949 12.9831542,51.7253172 17.0278641,46.2351903 C21.0271053,40.8067807 32.5754338,38.0620642 51.6728495,38.0010407 C51.7821425,38 51.8911927,38.0000863 52,38.000259 C52.1088073,38.0000863 52.2178575,38 52.3271505,38 C71.4245662,38.0620642 82.9728947,40.8067807 86.9721359,46.2351903 C91.0168458,51.7253172 93.4411516,59.4114949 94.2450532,69.2937233 C94.980455,67.463681 96.7847096,67.0976725 99.657817,68.1956979 C103.967478,69.8427359 105.724882,74.7838501 101.864022,81.9210151 C99.2901161,86.6791251 95.980808,88.8751758 91.9360981,88.5091674 C91.3611375,99.9354859 86.6612464,109.125726 77.8364247,116.079886 C69.1232591,122.94606 60.5111175,125.848354 52,124.786769 Z" id="path-7"></path>
        <filter x="-6.7%" y="-5.7%" width="113.5%" height="116.1%" filterUnits="objectBoundingBox" id="filter-8">
            <feOffset dx="0" dy="2" in="SourceAlpha" result="shadowOffsetOuter1"></feOffset>
            <feGaussianBlur stdDeviation="2" in="shadowOffsetOuter1" result="shadowBlurOuter1"></feGaussianBlur>
            <feColorMatrix values="0 0 0 0 0   0 0 0 0 0   0 0 0 0 0  0 0 0 0.198284647 0" type="matrix" in="shadowBlurOuter1"></feColorMatrix>
        </filter>
        <path d="M108,108 L128,108 C128,116 124.666667,120 118,120 C111.333333,120 108,116 108,108 Z" id="path-9"></path>
        <filter x="-35.0%" y="-41.7%" width="170.0%" height="216.7%" filterUnits="objectBoundingBox" id="filter-10">
            <feOffset dx="0" dy="2" in="SourceAlpha" result="shadowOffsetOuter1"></feOffset>
            <feGaussianBlur stdDeviation="2" in="shadowOffsetOuter1" result="shadowBlurOuter1"></feGaussianBlur>
            <feColorMatrix values="0 0 0 0 0.906834609   0 0 0 0 0.16074631   0 0 0 0 0.16074631  0 0 0 0.213032156 0" type="matrix" in="shadowBlurOuter1"></feColorMatrix>
        </filter>
    </defs>
    <g id="Page-1" stroke="none" stroke-width="1" fill="none" fill-rule="evenodd">
        <g id="image1">
            <g id="Group-2" transform="translate(11.000000, 11.000000)">
                <circle id="Oval-3" fill="#E2F0F9" opacity="0.467108243" cx="119" cy="119" r="119"></circle>
                <g id="Combined-Shape">
                    <use fill="black" fill-opacity="1" filter="url(#filter-2)" xlink:href="#path-1"></use>
                    <use fill="#A88769" fill-rule="evenodd" xlink:href="#path-1"></use>
                </g>
                <g id="Path-10" fill-opacity="1" fill="black">
                    <use filter="url(#filter-4)" xlink:href="#path-3"></use>
                </g>
                <path d="" id="Path-9" stroke="#979797"></path>
                <g id="Combined-Shape">
                    <use fill="black" fill-opacity="1" filter="url(#filter-6)" xlink:href="#path-5"></use>
                    <use fill="#72B6DE" fill-rule="evenodd" xlink:href="#path-5"></use>
                </g>
                <g id="Group" transform="translate(66.000000, 8.000000)">
                    <g id="Combined-Shape">
                        <use fill="black" fill-opacity="1" filter="url(#filter-8)" xlink:href="#path-7"></use>
                        <use fill="#A98C72" fill-rule="evenodd" xlink:href="#path-7"></use>
                    </g>
                    <path d="M20.7456446,60.754717 C24.641115,55.4716981 19.3867596,48.8679245 30.2578397,48.8679245 C37.5052265,48.8679245 44.7526132,48.8679245 52,48.8679245 L52,0 C45.6585366,0 42.4878049,3.08176101 42.4878049,9.24528302 C42.4878049,15.408805 41.5818815,15.408805 39.7700348,9.24528302 C38.8641115,3.96226415 35.6933798,1.32075472 30.2578397,1.32075472 C22.1045296,1.32075472 19.3867596,7.9245283 20.7456446,13.2075472 C22.1045296,18.490566 13.9512195,3.96226415 4.43902439,13.2075472 C-1.90243902,19.3710692 -1.44947735,24.6540881 5.79790941,29.0566038 C1.26829268,31.6981132 -0.543554007,34.7798742 0.362369338,38.3018868 C1.26829268,41.8238994 3.53310105,44.4654088 7.15679443,46.2264151 C1.72125436,47.9874214 -0.543554007,50.6289308 0.362369338,54.1509434 C1.26829268,57.672956 3.08013937,59.8742138 5.79790941,60.754717 L5.79790941,70 C8.51567944,68.2389937 10.3275261,67.7987421 11.2334495,68.6792453 C12.5923345,70 16.8501742,66.0377358 20.7456446,60.754717 Z" id="Path-13" fill="#000000"></path>
                    <path d="M83.2543554,60.754717 C79.358885,55.4716981 84.6132404,48.8679245 73.7421603,48.8679245 L52,48.8679245 L52,0 C58.3414634,0 61.5121951,3.08176101 61.5121951,9.24528302 C61.5121951,15.408805 62.4181185,15.408805 64.2299652,9.24528302 C65.1358885,3.96226415 68.3066202,1.32075472 73.7421603,1.32075472 C81.8954704,1.32075472 84.6132404,7.9245283 83.2543554,13.2075472 C81.8954704,18.490566 90.0487805,3.96226415 99.5609756,13.2075472 C105.902439,19.3710692 105.449477,24.6540881 98.2020906,29.0566038 C102.731707,31.6981132 104.543554,34.7798742 103.637631,38.3018868 C102.731707,41.8238994 100.466899,44.4654088 96.8432056,46.2264151 C102.278746,47.9874214 104.543554,50.6289308 103.637631,54.1509434 C102.731707,57.672956 100.919861,59.8742138 98.2020906,60.754717 L98.2020906,70 C95.4843206,68.2389937 93.6724739,67.7987421 92.7665505,68.6792453 C91.4076655,70 87.1498258,66.0377358 83.2543554,60.754717 Z" id="Path-13" fill="#000000"></path>
                </g>
                <circle id="Oval" fill="#FFFFFF" cx="99.5" cy="88.5" r="7.5"></circle>
                <circle id="Oval" fill="#FFFFFF" cx="136.5" cy="88.5" r="7.5"></circle>
                <circle id="Oval-2" fill="#633C0C" cx="99.5" cy="88.5" r="3.5"></circle>
                <circle id="Oval-2" fill="#633C0C" cx="136.5" cy="88.5" r="3.5"></circle>
                <g id="Path-14">
                    <use fill="black" fill-opacity="1" filter="url(#filter-10)" xlink:href="#path-9"></use>
                    <use fill="#FFFFFF" fill-rule="evenodd" xlink:href="#path-9"></use>
                </g>
            </g>
            <text id="&lt;20" font-family="Avenir-Light, Avenir" font-size="36" font-weight="300" letter-spacing="1.866667" fill="#000000">
                <tspan x="84.4919995" y="289">&lt;20</tspan>
            </text>
        </g>
    </g>
</svg>